# xmcd
# 
# Track frame offsets:
#     150
#     26568
#     37967
#     78044
#     114981
#     156309
#     192701
#     232444
#     255327
#     275050
#     300332
# 
# Disc length: 4667
# 
# Revision: 1
# Processed by: cddbd v1.5.2PL0 Copyright (c) Steve Scherf et al.
# Submitted via: fre:ac v1.0.31
# 
DISCID=8c12390b
DTITLE=Terry Pratchett and Neil Gaiman (read by Martin Jarvis) - Good Omens [CD1]
DYEAR=2009
DGENRE=Audiobook
TTITLE0=d01t01 HarperAudio presents
TTITLE1=d01t02 Good Omens
TTITLE2=d01t03 ELEVEN YEARS AGO
TTITLE3=d01t04 In the graveyard, Hastur
TTITLE4=d01t05 Crowley, somewhere
TTITLE5=d01t06 A large black car
TTITLE6=d01t07 There was a knock
TTITLE7=d01t08 Sister Mary's error
TTITLE8=d01t09 Evil in general does
TTITLE9=d01t10 Mr Young had not been
TTITLE10=d01t11 IT HAD NOT BEEN
EXTD=
EXTT0=
EXTT1=
EXTT2=
EXTT3=
EXTT4=
EXTT5=
EXTT6=
EXTT7=
EXTT8=
EXTT9=
EXTT10=
PLAYORDER=
